  0
SECTION
  2
HEADER
  9
$ACADVER
  1
AC1009
  9
$INSBASE
 10
0.0
 20
0.0
 30
0.0
  9
$EXTMIN
 10
0.0
 20
0.0
 30
0.0
  9
$EXTMAX
 10
0.0
 20
0.0
 30
0.0
  0
ENDSEC
  0
SECTION
  2
TABLES
  0
TABLE
  2
VPORT
 70
0
  0
ENDTAB
  0
TABLE
  2
LTYPE
 70
1
  0
LTYPE
  2
CONTINUOUS
 70
0
  3
Solid line
 72
65
 73
0
 40
0.0
  0
ENDTAB
  0
TABLE
  2
LAYER
 70
1
  0
LAYER
  2
0
 70
64
 62
7
  6
continuous
  0
ENDTAB
  0
TABLE
  2
STYLE
 70
1
  0
STYLE
  2
STANDARD
 70
0
 40
0
 41
1.0
 50
0.0
 71
0
 42
1
 3
ARIAL.TTF
 4

  0
ENDTAB
  0
TABLE
  2
VIEW
 70
0
  0
ENDTAB
  0
ENDSEC
  0
SECTION
  2
BLOCKS
  0
BLOCK
  8
0
  2
POCKET
 70
0
 10
0.0
 20
0.0
 30
0.0
  3
POCKET
  0
LINE
  8
0
 62
8
 10
0.0
 20
0.0
 30
0.0
 11
63.0
 21
0.0
 31
0.0
  0
LINE
  8
0
 62
8
 10
0.0
 20
0.0
 30
0.0
 11
0.0
 21
4.5
 31
0.0
  0
LINE
  8
0
 62
8
 10
63.0
 20
0.0
 30
0.0
 11
63.0
 21
1.5
 31
0.0
  0
LINE
  8
0
 62
8
 10
4.0
 20
4.5
 30
0.0
 11
0.0
 21
4.5
 31
0.0
  0
ARC
  8
0
 62
8
 10
67.0
 20
1.5
 30
0.0
 40
4.0
 50
90.0
 51
-180.0
  0
ARC
  8
0
 62
8
 10
4.0
 20
6.0
 30
0.0
 40
1.5
 50
-90.0
 51
90.0
  0
LINE
  8
0
 62
8
 10
67.0
 20
5.5
 30
0.0
 11
78.5
 21
5.5
 31
0.0
  0
LINE
  8
0
 62
8
 10
0.0
 20
7.5
 30
0.0
 11
4.0
 21
7.5
 31
0.0
  0
LINE
  8
0
 62
8
 10
78.5
 20
5.5
 30
0.0
 11
85.0
 21
19.4
 31
0.0
  0
LINE
  8
0
 62
8
 10
0.0
 20
22.0
 30
0.0
 11
0.0
 21
7.5
 31
0.0
  0
LINE
  8
0
 62
8
 10
85.0
 20
19.4
 30
0.0
 11
85.0
 21
29.6
 31
0.0
  0
LINE
  8
0
 62
8
 10
-12.4
 20
22.0
 30
0.0
 11
0.0
 21
22.0
 31
0.0
  0
LINE
  8
0
 62
8
 10
85.0
 20
29.6
 30
0.0
 11
78.8
 21
29.6
 31
0.0
  0
LINE
  8
0
 62
8
 10
-12.4
 20
41.0
 30
0.0
 11
-12.4
 21
22.0
 31
0.0
  0
LINE
  8
0
 62
8
 10
78.8
 20
29.6
 30
0.0
 11
78.8
 21
35.333939444
 31
0.0
  0
LINE
  8
0
 62
8
 10
3.1
 20
41.0
 30
0.0
 11
-12.4
 21
41.0
 31
0.0
  0
ARC
  8
0
 62
8
 10
79.8
 20
39.0
 30
0.0
 40
3.8
 50
105.25752329
 51
-105.25752329
  0
LINE
  8
0
 62
8
 10
3.1
 20
31.0
 30
0.0
 11
3.1
 21
41.0
 31
0.0
  0
LINE
  8
0
 62
8
 10
78.8
 20
42.666060556
 30
0.0
 11
78.8
 21
48.4
 31
0.0
  0
ARC
  8
0
 62
8
 10
5.1
 20
31.0
 30
0.0
 40
2.0
 50
-180.0
 51
-90.0
  0
LINE
  8
0
 62
8
 10
78.8
 20
48.4
 30
0.0
 11
85.0
 21
48.4
 31
0.0
  0
LINE
  8
0
 62
8
 10
6.3
 20
29.0
 30
0.0
 11
5.1
 21
29.0
 31
0.0
  0
LINE
  8
0
 62
8
 10
85.0
 20
48.4
 30
0.0
 11
85.0
 21
67.5
 31
0.0
  0
LINE
  8
0
 62
8
 10
6.3
 20
27.0
 30
0.0
 11
6.3
 21
29.0
 31
0.0
  0
LINE
  8
0
 62
8
 10
85.0
 20
67.5
 30
0.0
 11
62.3
 21
67.5
 31
0.0
  0
LINE
  8
0
 62
8
 10
17.2
 20
27.0
 30
0.0
 11
6.3
 21
27.0
 31
0.0
  0
LINE
  8
0
 62
8
 10
62.3
 20
67.5
 30
0.0
 11
62.3
 21
56.0
 31
0.0
  0
LINE
  8
0
 62
8
 10
17.2
 20
29.0
 30
0.0
 11
17.2
 21
27.0
 31
0.0
  0
LINE
  8
0
 62
8
 10
62.3
 20
56.0
 30
0.0
 11
66.3
 21
56.0
 31
0.0
  0
LINE
  8
0
 62
8
 10
54.2
 20
29.0
 30
0.0
 11
17.2
 21
29.0
 31
0.0
  0
ARC
  8
0
 62
8
 10
66.3
 20
53.0
 30
0.0
 40
3.0
 50
-90.0
 51
90.0
  0
LINE
  8
0
 62
8
 10
54.2
 20
27.0
 30
0.0
 11
54.2
 21
29.0
 31
0.0
  0
LINE
  8
0
 62
8
 10
66.3
 20
50.0
 30
0.0
 11
62.3
 21
50.0
 31
0.0
  0
LINE
  8
0
 62
8
 10
59.6
 20
27.0
 30
0.0
 11
54.2
 21
27.0
 31
0.0
  0
LINE
  8
0
 62
8
 10
62.3
 20
50.0
 30
0.0
 11
62.3
 21
31.0
 31
0.0
  0
LINE
  8
0
 62
8
 10
59.6
 20
29.0
 30
0.0
 11
59.6
 21
27.0
 31
0.0
  0
ARC
  8
0
 62
8
 10
60.3
 20
31.0
 30
0.0
 40
2.0
 50
-90.0
 51
-0.0
  0
LINE
  8
0
 62
8
 10
60.3
 20
29.0
 30
0.0
 11
59.6
 21
29.0
 31
0.0
  0
CIRCLE
  8
0
 62
8
 10
66.5
 20
32.0
 30
0.0
 40
1.5
  0
CIRCLE
  8
0
 62
8
 10
-3.8
 20
30.6
 30
0.0
 40
2.5
  0
CIRCLE
  8
0
 62
8
 10
70.5
 20
62.3
 30
0.0
 40
1.75
  0
ENDBLK
  0
ENDSEC
  0
SECTION
  2
ENTITIES
  0
INSERT
  2
POCKET
  8
0
 62
8
 10
0.0
 20
0.0
 30
0.0
  0
ENDSEC
  0
EOF
